<?xml version="1.0" encoding="UTF-8" standalone="no"?>
<svg
   xmlns:dc="http://purl.org/dc/elements/1.1/"
   xmlns:cc="http://creativecommons.org/ns#"
   xmlns:rdf="http://www.w3.org/1999/02/22-rdf-syntax-ns#"
   xmlns:svg="http://www.w3.org/2000/svg"
   xmlns="http://www.w3.org/2000/svg"
   xmlns:sodipodi="http://sodipodi.sourceforge.net/DTD/sodipodi-0.dtd"
   xmlns:inkscape="http://www.inkscape.org/namespaces/inkscape"
   viewBox="0 0 15.5 14.5"
   version="1.1"
   id="svg4"
   sodipodi:docname="Addphotocheck.svg"
   width="15.5"
   height="14.5"
   inkscape:version="0.92.4 (5da689c313, 2019-01-14)">
  <metadata
     id="metadata10">
    <rdf:RDF>
      <cc:Work
         rdf:about="">
        <dc:format>image/svg+xml</dc:format>
        <dc:type
           rdf:resource="http://purl.org/dc/dcmitype/StillImage" />
        <dc:title></dc:title>
      </cc:Work>
    </rdf:RDF>
  </metadata>
  <defs
     id="defs8" />
  <sodipodi:namedview
     pagecolor="#ffffff"
     bordercolor="#666666"
     borderopacity="1"
     objecttolerance="10"
     gridtolerance="10"
     guidetolerance="10"
     inkscape:pageopacity="0"
     inkscape:pageshadow="2"
     inkscape:window-width="1817"
     inkscape:window-height="1046"
     id="namedview6"
     showgrid="false"
     inkscape:zoom="32"
     inkscape:cx="-0.57508387"
     inkscape:cy="2.0734205"
     inkscape:window-x="-11"
     inkscape:window-y="-11"
     inkscape:window-maximized="1"
     inkscape:current-layer="g1161">
    <inkscape:grid
       type="xygrid"
       id="grid1157"
       spacingx="0.5"
       spacingy="0.5"
       empspacing="1"
       color="#ff3fff"
       opacity="0.1254902"
       dotted="false" />
  </sodipodi:namedview>
  <g
     id="g1161">
    <ellipse
       ry="2.6964102"
       rx="2.6375365"
       cy="9.7933207"
       cx="10.815114"
       id="path12"
       style="opacity:1;fill:#44d26f;fill-opacity:1;stroke:#44d26f;stroke-width:2.13145137;stroke-linecap:butt;stroke-linejoin:round;stroke-miterlimit:4;stroke-dasharray:none;stroke-opacity:1;paint-order:normal" />
    <path
       inkscape:connector-curvature="0"
       id="path2"
       d="m 5.628103,0.25650478 c -0.506,0 -0.9624531,0.31431249 -1.1894531,0.82031252 L 4.3585719,1.2565047 H 1.8370874 c -0.827,0 -1.50000001,0.673 -1.50000001,1.5 v 7 c 0,0.8270003 0.67300001,1.5000003 1.50000001,1.5000003 H 5.549978 c -0.091,-0.323 -0.1565,-0.656 -0.1875,-1 H 1.8370874 c -0.276,0 -0.5,-0.225 -0.5,-0.5000003 v -7 c 0,-0.275 0.224,-0.5 0.5,-0.5 H 5.0050562 L 5.3507593,1.4869735 C 5.4137593,1.3469734 5.523103,1.2565047 5.628103,1.2565047 h 3.4179688 c 0.105,0 0.2143437,0.091469 0.2773437,0.2304688 l 0.3457029,0.7695312 h 3.1679686 c 0.276,0 0.5,0.225 0.5,0.5 v 2.1054688 c 0.357,0.1829999 0.694,0.3993437 1,0.6523437 V 2.7565047 c 0,-0.827 -0.673,-1.5 -1.5,-1.5 H 10.315603 L 10.235523,1.0748642 C 10.007525,0.56986417 9.5510714,0.25650478 9.0460718,0.25650478 Z M 2.3370874,3.2565047 v 1 h 1 v -1 z m 5,0 c -1.654,0 -3,1.346 -3,3 0,0.943 0.4459062,1.7761719 1.1289062,2.326172 0.079,-0.3650001 0.19475,-0.7167814 0.34375,-1.0507814 -0.2909999,-0.348 -0.4726562,-0.7883906 -0.4726562,-1.2753906 0,-1.103 0.897,-2 2,-2 0.487,0 0.9273906,0.1816562 1.2753906,0.4726562 0.334,-0.1479999 0.6857813,-0.26375 1.0507814,-0.34375 C 9.1132593,3.702411 8.2800874,3.2565047 7.3370874,3.2565047 Z m 3.4999996,2 c -2.4793587,0 -4.4999996,2.0206409 -4.4999996,4.5 0,2.4793593 2.0206409,4.5000003 4.4999996,4.5000003 2.479359,0 4.5,-2.020641 4.5,-4.5000003 0,-2.4793591 -2.020641,-4.5 -4.5,-4.5 z m 0,1 c 1.938919,0 3.5,1.5610811 3.5,3.5 0,1.9389193 -1.561081,3.5000003 -3.5,3.5000003 -1.9389185,0 -3.4999996,-1.561081 -3.4999996,-3.5000003 0,-1.9389189 1.5610811,-3.5 3.4999996,-3.5 z"
       sodipodi:nodetypes="sccssssccssssccssccssccssccsscccccssccssccsssssssssss" />
    <rect
       style="opacity:1;fill:#000000;fill-opacity:1;stroke:#000000;stroke-width:0.94639504;stroke-linecap:butt;stroke-linejoin:miter;stroke-miterlimit:4;stroke-dasharray:none;stroke-opacity:1;paint-order:normal"
       id="rect1186"
       width="0.053604949"
       height="6.0536051"
       x="15.299697"
       y="-5.9832745"
       transform="rotate(47.322051)" />
    <rect
       style="opacity:1;fill:#000000;fill-opacity:1;stroke:#000000;stroke-width:0.87092447;stroke-linecap:butt;stroke-linejoin:miter;stroke-miterlimit:4;stroke-dasharray:none;stroke-opacity:1;paint-order:normal"
       id="rect1186-7"
       width="0.12907554"
       height="2.1290755"
       x="-0.49862543"
       y="13.24266"
       transform="rotate(-44.044725)" />
  </g>
</svg>
